<svg width="20" height="20" viewBox="0 0 20 20" fill="none" xmlns="http://www.w3.org/2000/svg">
<g clip-path="url(#clip0_437_7833)">
<mask id="mask0_437_7833" style="mask-type:alpha" maskUnits="userSpaceOnUse" x="0" y="0" width="20" height="20">
<rect width="20" height="20" fill="#D9D9D9"/>
</mask>
<g mask="url(#mask0_437_7833)">
<path d="M2.75 11H6.25V9.75H4.75C4.5375 9.75 4.35938 9.67854 4.21563 9.53562C4.07188 9.39271 4 9.21563 4 9.00438C4 8.79313 4.07292 8.61806 4.21875 8.47917C4.36458 8.34028 4.54167 8.26389 4.75 8.25H6.1875C6.61806 8.23611 6.98611 8.38194 7.29167 8.6875C7.59722 8.99306 7.75 9.36806 7.75 9.8125V11H9.25V5.25C9.25 4.34722 9.56514 3.57986 10.1954 2.94792C10.8257 2.31597 11.5939 2 12.5 2C13.125 2 13.6947 2.15924 14.209 2.47771C14.7233 2.79632 15.1189 3.23431 15.3958 3.79167L15.9792 4.97917C16.0764 5.17361 16.0938 5.36458 16.0312 5.55208C15.9688 5.73958 15.8403 5.88194 15.6458 5.97917C15.4514 6.07639 15.2604 6.09375 15.0729 6.03125C14.8854 5.96875 14.7431 5.84028 14.6458 5.64583L14.0475 4.46396C13.8908 4.16854 13.6736 3.93403 13.3958 3.76042C13.1181 3.58681 12.8194 3.5 12.5 3.5C12.0139 3.5 11.6007 3.67014 11.2604 4.01042C10.9201 4.35069 10.75 4.76389 10.75 5.25V11H12.25V9.8125C12.25 9.36806 12.4028 8.99306 12.7083 8.6875C13.0139 8.38194 13.3819 8.23611 13.8125 8.25H15.25C15.4583 8.26389 15.6354 8.3409 15.7812 8.48104C15.9271 8.62118 16 8.79479 16 9.00188C16 9.20896 15.9271 9.38889 15.7812 9.54167C15.6354 9.69444 15.4583 9.76389 15.25 9.75H13.75V11H17.25C17.4625 11 17.6406 11.0715 17.7844 11.2144C17.9281 11.3573 18 11.5344 18 11.7456C18 11.9569 17.9281 12.1354 17.7844 12.2812C17.6406 12.4271 17.4625 12.5 17.25 12.5H2.75C2.5375 12.5 2.35937 12.4285 2.21562 12.2856C2.07187 12.1427 2 11.9656 2 11.7544C2 11.5431 2.07187 11.3646 2.21562 11.2188C2.35937 11.0729 2.5375 11 2.75 11ZM5 17C4.5875 17 4.23437 16.8531 3.94062 16.5594C3.64687 16.2656 3.5 15.9125 3.5 15.5V12.5H5V15.5H15V12.5H16.5V15.4583C16.5 15.8822 16.3531 16.2451 16.0594 16.5471C15.7656 16.849 15.4125 17 15 17H5Z" fill="#BAC8DE"/>
</g>
</g>
<defs>
<clipPath id="clip0_437_7833">
<rect width="20" height="20" fill="white"/>
</clipPath>
</defs>
</svg>
